<svg id="Layer_1" data-name="Layer 1" xmlns="http://www.w3.org/2000/svg" viewBox="0 0 1018.85 123.56">
  <defs>
    <style>
      .cls-1 {
        fill: #656c73;
      }

      .cls-2 {
        fill: #ea4335;
      }

      .cls-3 {
        fill: #4285f4;
      }

      .cls-4 {
        fill: #fbbc04;
      }

      .cls-5 {
        fill: #34a853;
      }
      @media (prefers-color-scheme: dark) {
            .cls-1 {
        fill: white;
      }

      .cls-2 {
        fill: white;
      }

      .cls-3 {
        fill: white;
      }

      .cls-4 {
        fill: white;
      }

      .cls-5 {
        fill: white;
      }
       }
    </style>
  </defs>
  <g id="Logo-G">
    <g id="GDSC-T">
      <path class="cls-1" d="M177.25,144.91a22,22,0,0,1-8.28-8.29,23.86,23.86,0,0,1,0-23.31,22,22,0,0,1,8.28-8.29,22.65,22.65,0,0,1,11.44-3,24.14,24.14,0,0,1,9.12,1.72,18.31,18.31,0,0,1,7,4.84l-3.74,3.75a13.47,13.47,0,0,0-5.37-4,18,18,0,0,0-7-1.38,17.38,17.38,0,0,0-8.62,2.24,17.05,17.05,0,0,0-6.44,6.32,19.52,19.52,0,0,0,0,18.83,17,17,0,0,0,6.44,6.32,17.38,17.38,0,0,0,8.62,2.24,17.58,17.58,0,0,0,7.4-1.38,17.21,17.21,0,0,0,5.18-3.65,13,13,0,0,0,2.58-4.17A17.57,17.57,0,0,0,205,128.4h-16.2v-4.85h21.1a17.78,17.78,0,0,1,.31,3.19,24.62,24.62,0,0,1-1.29,7.89,17.4,17.4,0,0,1-4.11,6.72q-6.2,6.57-16.14,6.56A22.65,22.65,0,0,1,177.25,144.91Z" transform="translate(-17.63 -96.22)"/>
      <path class="cls-1" d="M221.71,145.8a14.79,14.79,0,0,1-5.56-5.83,18.12,18.12,0,0,1,0-16.51,14.79,14.79,0,0,1,5.56-5.83,15.41,15.41,0,0,1,8-2.11,15.58,15.58,0,0,1,8.07,2.11,14.86,14.86,0,0,1,5.59,5.83,18.12,18.12,0,0,1,0,16.51,14.86,14.86,0,0,1-5.59,5.83,15.58,15.58,0,0,1-8.07,2.11A15.41,15.41,0,0,1,221.71,145.8Zm13.19-4a10.38,10.38,0,0,0,3.83-4,13.41,13.41,0,0,0,0-12.09,10.38,10.38,0,0,0-3.83-4,10,10,0,0,0-5.16-1.41,9.87,9.87,0,0,0-5.09,1.41,10.38,10.38,0,0,0-3.83,4,13.33,13.33,0,0,0,0,12.09,10.38,10.38,0,0,0,3.83,4,9.87,9.87,0,0,0,5.09,1.41A10,10,0,0,0,234.9,141.78Z" transform="translate(-17.63 -96.22)"/>
      <path class="cls-1" d="M256.5,145.8a14.79,14.79,0,0,1-5.56-5.83,18.12,18.12,0,0,1,0-16.51,14.79,14.79,0,0,1,5.56-5.83,15.41,15.41,0,0,1,8-2.11,15.58,15.58,0,0,1,8.07,2.11,14.79,14.79,0,0,1,5.59,5.83,18.12,18.12,0,0,1,0,16.51,14.79,14.79,0,0,1-5.59,5.83,15.58,15.58,0,0,1-8.07,2.11A15.41,15.41,0,0,1,256.5,145.8Zm13.19-4a10.38,10.38,0,0,0,3.83-4,13.41,13.41,0,0,0,0-12.09,10.38,10.38,0,0,0-3.83-4,10,10,0,0,0-5.16-1.41,9.87,9.87,0,0,0-5.09,1.41,10.38,10.38,0,0,0-3.83,4,13.33,13.33,0,0,0,0,12.09,10.38,10.38,0,0,0,3.83,4,9.87,9.87,0,0,0,5.09,1.41A10,10,0,0,0,269.69,141.78Z" transform="translate(-17.63 -96.22)"/>
      <path class="cls-1" d="M289.81,158.53a13.21,13.21,0,0,1-4.72-6.14l4.85-2a8.72,8.72,0,0,0,3.28,4.39,9.41,9.41,0,0,0,5.61,1.68q4.85,0,7.46-2.81t2.61-7.86v-3.26h-.25a11.36,11.36,0,0,1-4.23,3.87,12.7,12.7,0,0,1-6.26,1.53,13.15,13.15,0,0,1-7.18-2.09A15,15,0,0,1,285.7,140a18.62,18.62,0,0,1,0-16.63,15.09,15.09,0,0,1,5.28-5.79,13.15,13.15,0,0,1,7.18-2.09,12.7,12.7,0,0,1,6.26,1.53,11.36,11.36,0,0,1,4.23,3.87h.25V116.5h5v29.2a17.16,17.16,0,0,1-2,8.53,12.56,12.56,0,0,1-5.37,5.22,16.93,16.93,0,0,1-7.7,1.72A14.57,14.57,0,0,1,289.81,158.53Zm14.12-16.73a10.07,10.07,0,0,0,3.65-4,12.81,12.81,0,0,0,1.38-6.11,13,13,0,0,0-1.38-6.13,9.81,9.81,0,0,0-3.65-4,9.48,9.48,0,0,0-5-1.36,9.3,9.3,0,0,0-5,1.39,10.1,10.1,0,0,0-3.66,4,14.19,14.19,0,0,0,0,12.21,10.1,10.1,0,0,0,3.66,4,9.58,9.58,0,0,0,9.94,0Z" transform="translate(-17.63 -96.22)"/>
      <path class="cls-1" d="M320.92,103h5.22v43.93h-5.22Z" transform="translate(-17.63 -96.22)"/>
      <path class="cls-1" d="M338.5,145.83a14.66,14.66,0,0,1-5.43-5.77,17.42,17.42,0,0,1-2-8.35,18,18,0,0,1,1.84-8.13,14.57,14.57,0,0,1,5.24-5.89,14.23,14.23,0,0,1,7.83-2.17,14.86,14.86,0,0,1,7.76,2,13.07,13.07,0,0,1,5.12,5.61,18.68,18.68,0,0,1,1.78,8.35,4.46,4.46,0,0,1-.12,1.23H336.38a11.31,11.31,0,0,0,1.66,5.8,9.78,9.78,0,0,0,3.84,3.52,10.32,10.32,0,0,0,4.75,1.17q5.78,0,8.9-5.65l4.6,2.21a15.71,15.71,0,0,1-5.43,5.92,16.27,16.27,0,0,1-16.2.16Zm16.66-17.49a9.65,9.65,0,0,0-1-3.68,7.93,7.93,0,0,0-3-3.13,9.72,9.72,0,0,0-5.25-1.29,8.74,8.74,0,0,0-5.95,2.21,10,10,0,0,0-3.19,5.89Z" transform="translate(-17.63 -96.22)"/>
      <path class="cls-1" d="M380.62,103h13.32a23.89,23.89,0,0,1,11.78,2.79,19.25,19.25,0,0,1,7.73,7.76,25.48,25.48,0,0,1,0,22.83,19.25,19.25,0,0,1-7.73,7.76,23.89,23.89,0,0,1-11.78,2.79H380.62Zm13.32,39q7.79,0,12.33-4.48T410.81,125q0-8-4.54-12.52T393.94,108h-8.1v34Z" transform="translate(-17.63 -96.22)"/>
      <path class="cls-1" d="M428,145.83a14.66,14.66,0,0,1-5.43-5.77,17.42,17.42,0,0,1-2-8.35,18,18,0,0,1,1.84-8.13,14.57,14.57,0,0,1,5.24-5.89,14.25,14.25,0,0,1,7.83-2.17,14.86,14.86,0,0,1,7.76,2,13.07,13.07,0,0,1,5.12,5.61,18.68,18.68,0,0,1,1.78,8.35,4.46,4.46,0,0,1-.12,1.23H425.84a11.31,11.31,0,0,0,1.66,5.8,9.83,9.83,0,0,0,3.83,3.52,10.43,10.43,0,0,0,4.76,1.17q5.78,0,8.9-5.65l4.6,2.21a15.71,15.71,0,0,1-5.43,5.92,16.27,16.27,0,0,1-16.2.16Zm16.66-17.49a9.65,9.65,0,0,0-1-3.68,7.93,7.93,0,0,0-3-3.13,9.71,9.71,0,0,0-5.24-1.29,8.75,8.75,0,0,0-6,2.21,10,10,0,0,0-3.19,5.89Z" transform="translate(-17.63 -96.22)"/>
      <path class="cls-1" d="M451.37,116.5H457l9.33,24.3h.12l9.45-24.3h5.53L469,146.93H463.7Z" transform="translate(-17.63 -96.22)"/>
      <path class="cls-1" d="M491,145.83a14.66,14.66,0,0,1-5.43-5.77,17.42,17.42,0,0,1-2-8.35,18.17,18.17,0,0,1,1.84-8.13,14.6,14.6,0,0,1,5.25-5.89,14.21,14.21,0,0,1,7.82-2.17,14.9,14.9,0,0,1,7.77,2,13.19,13.19,0,0,1,5.12,5.61,18.81,18.81,0,0,1,1.78,8.35,4.46,4.46,0,0,1-.12,1.23H488.86a11.12,11.12,0,0,0,1.66,5.8,9.83,9.83,0,0,0,3.83,3.52,10.39,10.39,0,0,0,4.76,1.17q5.76,0,8.89-5.65l4.61,2.21a15.71,15.71,0,0,1-5.43,5.92,16.27,16.27,0,0,1-16.2.16Zm16.66-17.49a9.67,9.67,0,0,0-1.05-3.68,7.84,7.84,0,0,0-3-3.13,9.75,9.75,0,0,0-5.25-1.29,8.72,8.72,0,0,0-5.95,2.21,9.94,9.94,0,0,0-3.19,5.89Z" transform="translate(-17.63 -96.22)"/>
      <path class="cls-1" d="M518.43,103h5.22v43.93h-5.22Z" transform="translate(-17.63 -96.22)"/>
      <path class="cls-1" d="M536.17,145.8a14.79,14.79,0,0,1-5.56-5.83,18.12,18.12,0,0,1,0-16.51,14.79,14.79,0,0,1,5.56-5.83,15.41,15.41,0,0,1,8-2.11,15.58,15.58,0,0,1,8.07,2.11,14.72,14.72,0,0,1,5.59,5.83,18.12,18.12,0,0,1,0,16.51,14.72,14.72,0,0,1-5.59,5.83,15.58,15.58,0,0,1-8.07,2.11A15.41,15.41,0,0,1,536.17,145.8Zm13.19-4a10.38,10.38,0,0,0,3.83-4,13.41,13.41,0,0,0,0-12.09,10.38,10.38,0,0,0-3.83-4,10,10,0,0,0-5.16-1.41,9.87,9.87,0,0,0-5.09,1.41,10.38,10.38,0,0,0-3.83,4,13.33,13.33,0,0,0,0,12.09,10.38,10.38,0,0,0,3.83,4,9.87,9.87,0,0,0,5.09,1.41A10,10,0,0,0,549.36,141.78Z" transform="translate(-17.63 -96.22)"/>
      <path class="cls-1" d="M564.58,116.5h5V121h.24a11.55,11.55,0,0,1,4.24-3.9,12.73,12.73,0,0,1,6.38-1.56,13.21,13.21,0,0,1,7.24,2.11,15.24,15.24,0,0,1,5.27,5.8,18.41,18.41,0,0,1,0,16.57,15.24,15.24,0,0,1-5.27,5.8,13.21,13.21,0,0,1-7.24,2.11,13,13,0,0,1-6.42-1.56,10.88,10.88,0,0,1-4.2-4h-.24l.24,4.24v13.56h-5.21Zm20,25.28a10.18,10.18,0,0,0,3.68-4,13.93,13.93,0,0,0,0-12.09,10.18,10.18,0,0,0-3.68-4,9.38,9.38,0,0,0-5-1.41,9.53,9.53,0,0,0-5,1.38,9.89,9.89,0,0,0-3.68,4,14.13,14.13,0,0,0,0,12.18,9.85,9.85,0,0,0,3.68,4,9.53,9.53,0,0,0,5,1.38A9.38,9.38,0,0,0,584.61,141.78Z" transform="translate(-17.63 -96.22)"/>
      <path class="cls-1" d="M607.07,145.83a14.66,14.66,0,0,1-5.43-5.77,17.42,17.42,0,0,1-2-8.35,18.17,18.17,0,0,1,1.84-8.13,14.6,14.6,0,0,1,5.25-5.89,14.21,14.21,0,0,1,7.82-2.17,14.9,14.9,0,0,1,7.77,2,13.19,13.19,0,0,1,5.12,5.61,18.81,18.81,0,0,1,1.78,8.35,4.46,4.46,0,0,1-.12,1.23H605a11.12,11.12,0,0,0,1.66,5.8,9.83,9.83,0,0,0,3.83,3.52,10.39,10.39,0,0,0,4.76,1.17q5.76,0,8.89-5.65l4.61,2.21a15.71,15.71,0,0,1-5.43,5.92,16.27,16.27,0,0,1-16.2.16Zm16.66-17.49a9.67,9.67,0,0,0-1.05-3.68,7.84,7.84,0,0,0-3-3.13,9.72,9.72,0,0,0-5.25-1.29,8.72,8.72,0,0,0-6,2.21,9.94,9.94,0,0,0-3.19,5.89Z" transform="translate(-17.63 -96.22)"/>
      <path class="cls-1" d="M634.52,116.5h5v5h.25a8.21,8.21,0,0,1,3.53-4.24,9.79,9.79,0,0,1,5.3-1.71,10.12,10.12,0,0,1,3.56.61v5.58a8.8,8.8,0,0,0-4.29-.92,7.08,7.08,0,0,0-4,1.26,9.15,9.15,0,0,0-3,3.36,9.65,9.65,0,0,0-1.1,4.55v17h-5.22Z" transform="translate(-17.63 -96.22)"/>
      <path class="cls-1" d="M675,146.53A15.9,15.9,0,0,1,666.12,136l5-2a12.9,12.9,0,0,0,3.87,6.44,9.59,9.59,0,0,0,6.57,2.51,10.26,10.26,0,0,0,6.5-2.05,6.73,6.73,0,0,0,2.64-5.62,6.5,6.5,0,0,0-2.24-5.06,21.62,21.62,0,0,0-7.33-3.71l-2.77-1a22.15,22.15,0,0,1-7.61-4.36,9.64,9.64,0,0,1-2.94-7.48,10.47,10.47,0,0,1,1.72-5.8,12.39,12.39,0,0,1,4.75-4.27A14.56,14.56,0,0,1,681.1,102a14.83,14.83,0,0,1,6.65,1.41,13.55,13.55,0,0,1,4.54,3.43,11.77,11.77,0,0,1,2.3,4l-4.84,2.09a8.39,8.39,0,0,0-2.83-4.14,8.53,8.53,0,0,0-5.7-1.81,9,9,0,0,0-5.77,1.9,5.88,5.88,0,0,0-2.39,4.79,5.15,5.15,0,0,0,2,4.2,20.87,20.87,0,0,0,6.14,3l2.82,1a24.4,24.4,0,0,1,8.74,5.06,10.89,10.89,0,0,1,3.16,8.25,11.43,11.43,0,0,1-2.18,7.12,12.75,12.75,0,0,1-5.49,4.23,18,18,0,0,1-6.87,1.35A15.6,15.6,0,0,1,675,146.53Z" transform="translate(-17.63 -96.22)"/>
      <path class="cls-1" d="M708.61,147.29a8.28,8.28,0,0,1-2.67-1.69,7.44,7.44,0,0,1-1.81-2.78,11,11,0,0,1-.58-3.78V121.22h-5.4V116.5h5.4v-9.08h5.16v9.08h7.48v4.72h-7.48v16.57a6,6,0,0,0,1,3.9,3.74,3.74,0,0,0,3.19,1.38,6.25,6.25,0,0,0,3.31-.86v5a10.58,10.58,0,0,1-1.87.52,14.77,14.77,0,0,1-2.36.15A9.27,9.27,0,0,1,708.61,147.29Z" transform="translate(-17.63 -96.22)"/>
      <path class="cls-1" d="M724.32,144.66q-2.91-3.24-2.91-9V116.5h5.21v18.28q0,8.41,7.55,8.41a7.62,7.62,0,0,0,4.51-1.41,9.34,9.34,0,0,0,3.07-3.68,11.17,11.17,0,0,0,1.07-4.79V116.5H748v30.43h-4.92v-4.54h-.24a11,11,0,0,1-4.08,3.93,11.44,11.44,0,0,1-5.86,1.59C729.12,147.91,726.26,146.83,724.32,144.66Z" transform="translate(-17.63 -96.22)"/>
      <path class="cls-1" d="M760.25,145.83A14.91,14.91,0,0,1,755,140a18.62,18.62,0,0,1,0-16.63,15,15,0,0,1,5.28-5.8,13.32,13.32,0,0,1,7.24-2.08,13,13,0,0,1,6.38,1.56,11,11,0,0,1,4.23,3.9h.25l-.25-4.18V103h5.16v43.93h-4.91v-4.54h-.25a10.83,10.83,0,0,1-4.23,4,13,13,0,0,1-6.38,1.56A13.32,13.32,0,0,1,760.25,145.83Zm13-4a9.92,9.92,0,0,0,3.68-4,14.13,14.13,0,0,0,0-12.18,10,10,0,0,0-3.68-4,9.59,9.59,0,0,0-5-1.38,9.41,9.41,0,0,0-5,1.41,10.18,10.18,0,0,0-3.68,4,13.93,13.93,0,0,0,0,12.09,10.18,10.18,0,0,0,3.68,4,9.41,9.41,0,0,0,5,1.41A9.59,9.59,0,0,0,773.29,141.81Z" transform="translate(-17.63 -96.22)"/>
      <path class="cls-1" d="M795.68,145.83a14.66,14.66,0,0,1-5.43-5.77,17.42,17.42,0,0,1-2-8.35,18,18,0,0,1,1.84-8.13,14.57,14.57,0,0,1,5.24-5.89,14.23,14.23,0,0,1,7.83-2.17,14.86,14.86,0,0,1,7.76,2,13.07,13.07,0,0,1,5.12,5.61,18.68,18.68,0,0,1,1.78,8.35,4.46,4.46,0,0,1-.12,1.23H793.56a11.31,11.31,0,0,0,1.66,5.8,9.78,9.78,0,0,0,3.84,3.52,10.35,10.35,0,0,0,4.75,1.17q5.78,0,8.9-5.65l4.6,2.21a15.71,15.71,0,0,1-5.43,5.92,16.27,16.27,0,0,1-16.2.16Zm16.66-17.49a9.65,9.65,0,0,0-1-3.68,7.93,7.93,0,0,0-3-3.13,9.72,9.72,0,0,0-5.25-1.29,8.74,8.74,0,0,0-6,2.21,10,10,0,0,0-3.19,5.89Z" transform="translate(-17.63 -96.22)"/>
      <path class="cls-1" d="M823.14,116.5h5V121h.24a10.44,10.44,0,0,1,4-3.93,11.66,11.66,0,0,1,5.89-1.59q5.6,0,8.5,3.25c1.94,2.17,2.92,5.13,2.92,8.9v19.26h-5.16V128.46q0-8.22-7.67-8.22a7.36,7.36,0,0,0-4.41,1.41,9.35,9.35,0,0,0-3,3.68,11,11,0,0,0-1.08,4.79v16.81h-5.21Z" transform="translate(-17.63 -96.22)"/>
      <path class="cls-1" d="M863.3,147.29a8.28,8.28,0,0,1-2.67-1.69,7.32,7.32,0,0,1-1.81-2.78,11,11,0,0,1-.59-3.78V121.22h-5.39V116.5h5.39v-9.08h5.16v9.08h7.48v4.72h-7.48v16.57a6.08,6.08,0,0,0,1,3.9,3.75,3.75,0,0,0,3.19,1.38,6.29,6.29,0,0,0,3.32-.86v5a10.67,10.67,0,0,1-1.88.52,14.68,14.68,0,0,1-2.36.15A9.22,9.22,0,0,1,863.3,147.29Z" transform="translate(-17.63 -96.22)"/>
      <path class="cls-1" d="M898.79,144.91a21.81,21.81,0,0,1-8.19-8.29,24.35,24.35,0,0,1,0-23.31,21.81,21.81,0,0,1,8.19-8.29,22.73,22.73,0,0,1,11.54-3,21.43,21.43,0,0,1,9,1.87,20.29,20.29,0,0,1,7,5.31l-3.68,3.62a15.45,15.45,0,0,0-5.49-4.42,16.17,16.17,0,0,0-6.9-1.41,17.39,17.39,0,0,0-8.71,2.24,16.64,16.64,0,0,0-6.36,6.32,20,20,0,0,0,0,18.83,16.57,16.57,0,0,0,6.36,6.32A17.64,17.64,0,0,0,924,136.38l3.74,3.68a21.58,21.58,0,0,1-7.48,5.74,23.92,23.92,0,0,1-21.42-.89Z" transform="translate(-17.63 -96.22)"/>
      <path class="cls-1" d="M932.79,103H938v43.93h-5.21Z" transform="translate(-17.63 -96.22)"/>
      <path class="cls-1" d="M947.66,144.66q-2.91-3.24-2.91-9V116.5H950v18.28q0,8.41,7.54,8.41a7.62,7.62,0,0,0,4.51-1.41,9.34,9.34,0,0,0,3.07-3.68,11,11,0,0,0,1.07-4.79V116.5h5.16v30.43h-4.91v-4.54h-.25a11,11,0,0,1-4.07,3.93,11.5,11.5,0,0,1-5.87,1.59Q950.58,147.91,947.66,144.66Z" transform="translate(-17.63 -96.22)"/>
      <path class="cls-1" d="M987.79,146.35a10.88,10.88,0,0,1-4.2-4h-.25v4.54h-5V103h5.22v13.8l-.25,4.18h.25a11.6,11.6,0,0,1,4.23-3.9,12.76,12.76,0,0,1,6.39-1.56,13.23,13.23,0,0,1,7.24,2.11,15.32,15.32,0,0,1,5.27,5.8,18.41,18.41,0,0,1,0,16.57,15.32,15.32,0,0,1-5.27,5.8,13.23,13.23,0,0,1-7.24,2.11A12.93,12.93,0,0,1,987.79,146.35Zm10.62-4.57a10.18,10.18,0,0,0,3.68-4,13.93,13.93,0,0,0,0-12.09,10.18,10.18,0,0,0-3.68-4,9.41,9.41,0,0,0-5-1.41,9.53,9.53,0,0,0-5,1.38,9.89,9.89,0,0,0-3.68,4,14,14,0,0,0,0,12.18,9.85,9.85,0,0,0,3.68,4,9.53,9.53,0,0,0,5,1.38A9.41,9.41,0,0,0,998.41,141.78Z" transform="translate(-17.63 -96.22)"/>
      <path class="cls-1" d="M1016.17,145.46a13.07,13.07,0,0,1-4.72-6.08l4.6-2a9.84,9.84,0,0,0,3.47,4.42,8.44,8.44,0,0,0,4.87,1.53,8.6,8.6,0,0,0,4.88-1.29,3.71,3.71,0,0,0,1.93-3.13,3.64,3.64,0,0,0-1.44-2.94,13.24,13.24,0,0,0-4.94-2l-4.17-1a13.51,13.51,0,0,1-5.86-2.88,6.94,6.94,0,0,1-2.42-5.53,7.5,7.5,0,0,1,1.62-4.84,10.07,10.07,0,0,1,4.33-3.07,16.1,16.1,0,0,1,5.89-1,14.31,14.31,0,0,1,7.15,1.81,10.08,10.08,0,0,1,4.57,5.12l-4.6,2a6.58,6.58,0,0,0-3-3.25,9.51,9.51,0,0,0-4.45-1,8.27,8.27,0,0,0-4.32,1.16,3.44,3.44,0,0,0-1.93,3,3,3,0,0,0,1.25,2.52,12.63,12.63,0,0,0,4,1.65l4.54,1.11a14.15,14.15,0,0,1,6.78,3.46,7.64,7.64,0,0,1,2.24,5.5,8.05,8.05,0,0,1-1.53,4.78,10.34,10.34,0,0,1-4.3,3.38,15.37,15.37,0,0,1-6.26,1.22A13.57,13.57,0,0,1,1016.17,145.46Z" transform="translate(-17.63 -96.22)"/>
    </g>
    <g>
      <path id="Logo-R" class="cls-2" d="M46.47,125.63l19.67-11.35a9.68,9.68,0,0,0-9.68-16.76l-34,19.62Z" transform="translate(-17.63 -96.22)"/>
      <path id="Logo-B" class="cls-3" d="M61.29,154.82a9.68,9.68,0,0,0,4.85-18.06l-34-19.62a9.68,9.68,0,0,0-9.68,16.76l34,19.62A9.63,9.63,0,0,0,61.29,154.82Z" transform="translate(-17.63 -96.22)"/>
      <path id="Logo-Y" class="cls-4" d="M95.1,154.82a9.66,9.66,0,0,0,4.83-1.3l34-19.62-23.69-8.67-20,11.53a9.68,9.68,0,0,0,4.85,18.06Z" transform="translate(-17.63 -96.22)"/>
      <path id="Logo-G-2" data-name="Logo-G" class="cls-5" d="M129.06,135.2a9.68,9.68,0,0,0,4.85-18.06l-34-19.62a9.68,9.68,0,0,0-9.68,16.76l34,19.62A9.66,9.66,0,0,0,129.06,135.2Z" transform="translate(-17.63 -96.22)"/>
    </g>
  </g>
  <g id="TTU-T">
    <path class="cls-1" d="M176.82,183.18h-8.64v-3.49h20.9v3.49h-8.65v27.31h-3.61Z" transform="translate(-17.63 -96.22)"/>
    <path class="cls-1" d="M193.4,209.71a10.14,10.14,0,0,1-3.8-4,12.21,12.21,0,0,1-1.38-5.85,12.69,12.69,0,0,1,1.29-5.7,10.22,10.22,0,0,1,3.68-4.13,9.93,9.93,0,0,1,5.48-1.52,10.41,10.41,0,0,1,5.44,1.39,9.26,9.26,0,0,1,3.59,3.94,13.11,13.11,0,0,1,1.25,5.85,2.89,2.89,0,0,1-.09.86H191.92a7.82,7.82,0,0,0,1.16,4.06,6.92,6.92,0,0,0,2.69,2.48,7.3,7.3,0,0,0,3.33.81,6.83,6.83,0,0,0,6.24-4l3.22,1.54a10.92,10.92,0,0,1-3.8,4.15,11.41,11.41,0,0,1-11.36.11Zm11.68-12.26a6.79,6.79,0,0,0-.73-2.58,5.52,5.52,0,0,0-2.09-2.19,6.82,6.82,0,0,0-3.68-.9,6.09,6.09,0,0,0-4.17,1.55,6.94,6.94,0,0,0-2.23,4.12Z" transform="translate(-17.63 -96.22)"/>
    <path class="cls-1" d="M218.07,199.65l-7.4-10.5h4.13l5.46,7.79,5.25-7.79h4.26l-7.44,10.5L230,210.49h-4.3l-5.5-8.18-5.42,8.18H210.5Z" transform="translate(-17.63 -96.22)"/>
    <path class="cls-1" d="M235.42,210.25a7.12,7.12,0,0,1-2.92-2.58,6.71,6.71,0,0,1-1.06-3.72,6.21,6.21,0,0,1,2.56-5.29,10.78,10.78,0,0,1,6.56-1.89,13.54,13.54,0,0,1,3.57.43,11.8,11.8,0,0,1,2.54.94V197a5,5,0,0,0-.8-2.77,5.26,5.26,0,0,0-2.13-1.89,6.68,6.68,0,0,0-8.47,2.3l-3.05-2a9.05,9.05,0,0,1,3.52-3.08,11,11,0,0,1,4.95-1.09,9.8,9.8,0,0,1,6.93,2.36,8.29,8.29,0,0,1,2.53,6.37v13.29h-3.48v-3.14h-.17a8.61,8.61,0,0,1-2.8,2.73,7.57,7.57,0,0,1-4.08,1.09A9.32,9.32,0,0,1,235.42,210.25Zm7.77-3.2a7.21,7.21,0,0,0,2.51-2.46,6.16,6.16,0,0,0,1-3.35,10.08,10.08,0,0,0-5.55-1.55,6.93,6.93,0,0,0-4.32,1.23,3.73,3.73,0,0,0-1.61,3.12,3.39,3.39,0,0,0,1.42,2.81,5.24,5.24,0,0,0,3.31,1.1A6.45,6.45,0,0,0,243.19,207.05Z" transform="translate(-17.63 -96.22)"/>
    <path class="cls-1" d="M256.69,209.45a9.1,9.1,0,0,1-3.31-4.25l3.22-1.42a6.93,6.93,0,0,0,2.43,3.09,5.93,5.93,0,0,0,3.42,1.08,6,6,0,0,0,3.42-.9,2.62,2.62,0,0,0,1.36-2.2,2.54,2.54,0,0,0-1-2.06,9.17,9.17,0,0,0-3.47-1.42l-2.92-.73a9.56,9.56,0,0,1-4.11-2,4.88,4.88,0,0,1-1.7-3.87,5.25,5.25,0,0,1,1.14-3.4,7,7,0,0,1,3-2.15,11.35,11.35,0,0,1,4.13-.73,10.08,10.08,0,0,1,5,1.26,7.12,7.12,0,0,1,3.21,3.6l-3.23,1.37a4.6,4.6,0,0,0-2.08-2.28,6.74,6.74,0,0,0-3.12-.73,5.69,5.69,0,0,0-3,.82,2.41,2.41,0,0,0-1.36,2.11,2.09,2.09,0,0,0,.88,1.76,8.73,8.73,0,0,0,2.82,1.16l3.18.77a10,10,0,0,1,4.76,2.44,5.33,5.33,0,0,1,1.57,3.84,5.61,5.61,0,0,1-1.08,3.36,7.19,7.19,0,0,1-3,2.36,10.58,10.58,0,0,1-4.39.86A9.52,9.52,0,0,1,256.69,209.45Z" transform="translate(-17.63 -96.22)"/>
    <path class="cls-1" d="M290.19,183.18h-8.64v-3.49h20.9v3.49h-8.64v27.31h-3.62Z" transform="translate(-17.63 -96.22)"/>
    <path class="cls-1" d="M306.77,209.71a10.21,10.21,0,0,1-3.8-4,12.21,12.21,0,0,1-1.38-5.85,12.69,12.69,0,0,1,1.29-5.7,10.22,10.22,0,0,1,3.68-4.13,9.93,9.93,0,0,1,5.48-1.52,10.41,10.41,0,0,1,5.44,1.39,9.2,9.2,0,0,1,3.59,3.94,13,13,0,0,1,1.25,5.85,3.38,3.38,0,0,1-.08.86H305.29a7.82,7.82,0,0,0,1.16,4.06,6.92,6.92,0,0,0,2.69,2.48,7.33,7.33,0,0,0,3.33.81,6.83,6.83,0,0,0,6.24-4l3.23,1.54a11,11,0,0,1-3.81,4.15,11.41,11.41,0,0,1-11.36.11Zm11.68-12.26a6.79,6.79,0,0,0-.73-2.58,5.52,5.52,0,0,0-2.09-2.19,6.81,6.81,0,0,0-3.67-.9,6.06,6.06,0,0,0-4.17,1.55,6.9,6.9,0,0,0-2.24,4.12Z" transform="translate(-17.63 -96.22)"/>
    <path class="cls-1" d="M330.75,209.69a10.35,10.35,0,0,1-3.89-4.09,12.69,12.69,0,0,1,0-11.59,10.4,10.4,0,0,1,3.89-4.06,10.72,10.72,0,0,1,5.59-1.48,9.85,9.85,0,0,1,5.85,1.67,9.59,9.59,0,0,1,3.44,4.35l-3.31,1.42a6.58,6.58,0,0,0-9.61-3.12,7.38,7.38,0,0,0-2.6,2.84,9.32,9.32,0,0,0,0,8.36,7.37,7.37,0,0,0,2.6,2.86,6.26,6.26,0,0,0,3.42,1,6.92,6.92,0,0,0,3.91-1.07,6.52,6.52,0,0,0,2.45-3.06l3.23,1.38a9.73,9.73,0,0,1-3.49,4.37,10,10,0,0,1-5.89,1.69A10.72,10.72,0,0,1,330.75,209.69Z" transform="translate(-17.63 -96.22)"/>
    <path class="cls-1" d="M349.59,179.69h3.65v9.64l-.17,3h.17a7.36,7.36,0,0,1,2.82-2.8,8.14,8.14,0,0,1,4.15-1.11c2.67,0,4.67.77,6,2.32a9.08,9.08,0,0,1,2,6.19v13.51h-3.61v-13a5.87,5.87,0,0,0-1.44-4.37,5.29,5.29,0,0,0-3.85-1.39,5.15,5.15,0,0,0-3.12,1,6.86,6.86,0,0,0-2.19,2.67,7.79,7.79,0,0,0-.8,3.41v11.62h-3.65Z" transform="translate(-17.63 -96.22)"/>
    <path class="cls-1" d="M388.08,209.65a10.47,10.47,0,0,1-4-4.26,13.54,13.54,0,0,1-1.42-6.3v-19.4h3.66v19.57a9.12,9.12,0,0,0,2,6.09,8.08,8.08,0,0,0,11.37,0,9,9,0,0,0,2-6.09V179.69h3.66v19.4a14,14,0,0,1-1.36,6.32,9.77,9.77,0,0,1-3.93,4.26,11.85,11.85,0,0,1-6.07,1.5A11.34,11.34,0,0,1,388.08,209.65Z" transform="translate(-17.63 -96.22)"/>
    <path class="cls-1" d="M410.7,189.15h3.49v3.19h.17a7.33,7.33,0,0,1,2.84-2.76,8.18,8.18,0,0,1,4.13-1.11,7.56,7.56,0,0,1,5.95,2.28,9,9,0,0,1,2.05,6.23v13.51h-3.62v-13q0-5.76-5.37-5.76a5.18,5.18,0,0,0-3.1,1,6.56,6.56,0,0,0-2.13,2.58,7.77,7.77,0,0,0-.75,3.35v11.79H410.7Z" transform="translate(-17.63 -96.22)"/>
    <path class="cls-1" d="M434.83,183.82a2.61,2.61,0,1,1,3.72,0,2.47,2.47,0,0,1-1.87.77A2.51,2.51,0,0,1,434.83,183.82Zm0,5.33h3.62v21.34h-3.62Z" transform="translate(-17.63 -96.22)"/>
    <path class="cls-1" d="M441.76,189.15h3.95l6.54,17h.09l6.62-17h3.87l-8.73,21.34h-3.7Z" transform="translate(-17.63 -96.22)"/>
    <path class="cls-1" d="M469.09,209.71a10.23,10.23,0,0,1-3.81-4,12.2,12.2,0,0,1-1.37-5.85,12.69,12.69,0,0,1,1.29-5.7,10.19,10.19,0,0,1,3.67-4.13,9.94,9.94,0,0,1,5.49-1.52,10.46,10.46,0,0,1,5.44,1.39,9.26,9.26,0,0,1,3.59,3.94,13.11,13.11,0,0,1,1.25,5.85,2.89,2.89,0,0,1-.09.86H467.6a7.83,7.83,0,0,0,1.17,4.06,6.9,6.9,0,0,0,2.68,2.48,7.37,7.37,0,0,0,3.34.81,6.83,6.83,0,0,0,6.23-4l3.23,1.54a11,11,0,0,1-3.81,4.15,11.39,11.39,0,0,1-11.35.11Zm11.68-12.26a6.81,6.81,0,0,0-.74-2.58,5.49,5.49,0,0,0-2.08-2.19,6.85,6.85,0,0,0-3.68-.9,6.06,6.06,0,0,0-4.17,1.55,7,7,0,0,0-2.24,4.12Z" transform="translate(-17.63 -96.22)"/>
    <path class="cls-1" d="M488.76,189.15h3.49v3.49h.17a5.75,5.75,0,0,1,2.47-3,6.87,6.87,0,0,1,3.72-1.2,7.1,7.1,0,0,1,2.5.43v3.91a6.19,6.19,0,0,0-3-.65,4.93,4.93,0,0,0-2.82.89,6.43,6.43,0,0,0-2.09,2.35,6.8,6.8,0,0,0-.77,3.19v11.9h-3.66Z" transform="translate(-17.63 -96.22)"/>
    <path class="cls-1" d="M505.41,209.45a9.1,9.1,0,0,1-3.31-4.25l3.22-1.42a6.93,6.93,0,0,0,2.43,3.09,5.93,5.93,0,0,0,3.42,1.08,6,6,0,0,0,3.42-.9,2.62,2.62,0,0,0,1.36-2.2,2.54,2.54,0,0,0-1-2.06,9.17,9.17,0,0,0-3.47-1.42l-2.92-.73a9.56,9.56,0,0,1-4.11-2,4.88,4.88,0,0,1-1.7-3.87,5.25,5.25,0,0,1,1.14-3.4,7,7,0,0,1,3-2.15,11.35,11.35,0,0,1,4.13-.73,10.08,10.08,0,0,1,5,1.26,7.12,7.12,0,0,1,3.21,3.6L516,194.7a4.6,4.6,0,0,0-2.08-2.28,6.74,6.74,0,0,0-3.12-.73,5.69,5.69,0,0,0-3,.82,2.41,2.41,0,0,0-1.36,2.11,2.09,2.09,0,0,0,.88,1.76,8.73,8.73,0,0,0,2.82,1.16l3.18.77a10,10,0,0,1,4.76,2.44,5.33,5.33,0,0,1,1.57,3.84,5.61,5.61,0,0,1-1.08,3.36,7.19,7.19,0,0,1-3,2.36,10.58,10.58,0,0,1-4.39.86A9.52,9.52,0,0,1,505.41,209.45Z" transform="translate(-17.63 -96.22)"/>
    <path class="cls-1" d="M523.65,183.82a2.61,2.61,0,1,1,4.47-1.85,2.57,2.57,0,0,1-.75,1.85,2.51,2.51,0,0,1-1.88.77A2.49,2.49,0,0,1,523.65,183.82Zm0,5.33h3.61v21.34h-3.61Z" transform="translate(-17.63 -96.22)"/>
    <path class="cls-1" d="M538.59,210.74a5.87,5.87,0,0,1-1.87-1.19,5.07,5.07,0,0,1-1.27-2A7.73,7.73,0,0,1,535,205V192.47h-3.78v-3.32H535v-6.36h3.62v6.36h5.24v3.32h-5.24v11.61a4.22,4.22,0,0,0,.73,2.73,2.62,2.62,0,0,0,2.23,1,4.33,4.33,0,0,0,2.33-.61v3.53a7.33,7.33,0,0,1-1.32.37,10.35,10.35,0,0,1-1.65.1A6.43,6.43,0,0,1,538.59,210.74Z" transform="translate(-17.63 -96.22)"/>
    <path class="cls-1" d="M554.87,209.11l-8.86-20h4l6.62,15.7h.09l6.4-15.7h4l-13.33,30.63H550Z" transform="translate(-17.63 -96.22)"/>
  </g>
</svg>
